<svg version="1.1" viewBox="0.0 0.0 960.0 540.0" fill="none" stroke="none" stroke-linecap="square" stroke-miterlimit="10" xmlns:xlink="http://www.w3.org/1999/xlink" xmlns="http://www.w3.org/2000/svg"><clipPath id="g1e1366662c0_0_185.0"><path d="m0 0l960.0 0l0 540.0l-960.0 0l0 -540.0z" clip-rule="nonzero"/></clipPath><g clip-path="url(#g1e1366662c0_0_185.0)"><path fill="#434343" d="m0 0l960.0 0l0 540.0l-960.0 0z" fill-rule="evenodd"/><path fill="#000000" fill-opacity="0.0" d="m23.735186 37.564304l294.80313 0l0 100.0945l-294.80313 0z" fill-rule="evenodd"/><path fill="#ffffff" d="m41.703934 85.55905q0 0.859375 -0.40625 1.609375q-0.390625 0.75 -1.265625 1.21875q-0.875 0.46875 -2.25 0.46875l-2.015625 0l0 4.515625l-1.828125 0l0 -11.125l3.84375 0q1.265625 0 2.15625 0.453125q0.890625 0.4375 1.328125 1.1875q0.4375 0.75 0.4375 1.671875zm-3.921875 1.8125q1.03125 0 1.546875 -0.46875q0.515625 -0.46875 0.515625 -1.34375q0 -1.8125 -2.0625 -1.8125l-2.015625 0l0 3.625l2.015625 0zm7.5043945 -1.53125q0.390625 -0.671875 1.046875 -1.046875q0.671875 -0.375 1.578125 -0.375l0 1.875l-0.453125 0q-1.078125 0 -1.625 0.546875q-0.546875 0.546875 -0.546875 1.890625l0 4.640625l-1.828125 0l0 -8.8125l1.828125 0l0 1.28125zm8.144012 7.671875q-1.25 0 -2.265625 -0.5625q-1.0 -0.5625 -1.578125 -1.59375q-0.578125 -1.046875 -0.578125 -2.40625q0 -1.34375 0.59375 -2.375q0.59375 -1.046875 1.609375 -1.59375q1.03125 -0.5625 2.296875 -0.5625q1.265625 0 2.28125 0.5625q1.03125 0.546875 1.609375 1.59375q0.59375 1.03125 0.59375 2.375q0 1.34375 -0.609375 2.390625q-0.59375 1.046875 -1.65625 1.609375q-1.046875 0.5625 -2.296875 0.5625zm0 -1.578125q0.703125 0 1.3125 -0.328125q0.609375 -0.34375 1.0 -1.015625q0.390625 -0.671875 0.390625 -1.640625q0 -0.953125 -0.375 -1.609375q-0.375 -0.671875 -0.984375 -1.0q-0.59375 -0.34375 -1.296875 -0.34375q-0.703125 0 -1.3125 0.34375q-0.59375 0.328125 -0.953125 1.0q-0.34375 0.65625 -0.34375 1.609375q0 1.4375 0.71875 2.21875q0.734375 0.765625 1.84375 0.765625zm8.504898 -5.890625l0 4.875q0 0.5 0.234375 0.71875q0.234375 0.21875 0.796875 0.21875l1.109375 0l0 1.515625l-1.4375 0q-1.234375 0 -1.890625 -0.578125q-0.65625 -0.578125 -0.65625 -1.875l0 -4.875l-1.03125 0l0 -1.484375l1.03125 0l0 -2.203125l1.84375 0l0 2.203125l2.140625 0l0 1.484375l-2.140625 0zm7.655136 7.46875q-1.25 0 -2.265625 -0.5625q-1.0 -0.5625 -1.578125 -1.59375q-0.578125 -1.046875 -0.578125 -2.40625q0 -1.34375 0.59375 -2.375q0.59375 -1.046875 1.609375 -1.59375q1.03125 -0.5625 2.296875 -0.5625q1.265625 0 2.28125 0.5625q1.03125 0.546875 1.609375 1.59375q0.59375 1.03125 0.59375 2.375q0 1.34375 -0.609375 2.390625q-0.59375 1.046875 -1.65625 1.609375q-1.046875 0.5625 -2.296875 0.5625zm0 -1.578125q0.703125 0 1.3125 -0.328125q0.609375 -0.34375 1.0 -1.015625q0.390625 -0.671875 0.390625 -1.640625q0 -0.953125 -0.375 -1.609375q-0.375 -0.671875 -0.984375 -1.0q-0.59375 -0.34375 -1.296875 -0.34375q-0.703125 0 -1.3125 0.34375q-0.59375 0.328125 -0.953125 1.0q-0.34375 0.65625 -0.34375 1.609375q0 1.4375 0.71875 2.21875q0.734375 0.765625 1.84375 0.765625zm8.504898 -5.890625l0 4.875q0 0.5 0.234375 0.71875q0.234375 0.21875 0.796875 0.21875l1.109375 0l0 1.515625l-1.4375 0q-1.234375 0 -1.890625 -0.578125q-0.65625 -0.578125 -0.65625 -1.875l0 -4.875l-1.03125 0l0 -1.484375l1.03125 0l0 -2.203125l1.84375 0l0 2.203125l2.140625 0l0 1.484375l-2.140625 0zm11.764511 -1.484375l-5.40625 12.953125l-1.890625 0l1.78125 -4.28125l-3.46875 -8.671875l2.03125 0l2.484375 6.71875l2.578125 -6.71875l1.890625 0zm3.2026367 1.296875q0.453125 -0.609375 1.25 -1.015625q0.8125 -0.421875 1.8125 -0.421875q1.15625 0 2.109375 0.5625q0.953125 0.5625 1.484375 1.59375q0.546875 1.015625 0.546875 2.34375q0 1.328125 -0.546875 2.375q-0.53125 1.046875 -1.484375 1.640625q-0.953125 0.578125 -2.109375 0.578125q-1.0 0 -1.796875 -0.40625q-0.78125 -0.40625 -1.265625 -1.015625l0 5.46875l-1.828125 0l0 -13.0l1.828125 0l0 1.296875zm5.359375 3.0625q0 -0.90625 -0.390625 -1.5625q-0.375 -0.671875 -0.984375 -1.015625q-0.609375 -0.34375 -1.3125 -0.34375q-0.6875 0 -1.3125 0.359375q-0.609375 0.34375 -0.984375 1.015625q-0.375 0.671875 -0.375 1.578125q0 0.921875 0.375 1.609375q0.375 0.671875 0.984375 1.03125q0.625 0.34375 1.3125 0.34375q0.703125 0 1.3125 -0.359375q0.609375 -0.359375 0.984375 -1.046875q0.390625 -0.6875 0.390625 -1.609375zm4.5823975 -5.53125q-0.5 0 -0.84375 -0.328125q-0.328125 -0.34375 -0.328125 -0.84375q0 -0.484375 0.328125 -0.8125q0.34375 -0.34375 0.84375 -0.34375q0.484375 0 0.8125 0.34375q0.34375 0.328125 0.34375 0.8125q0 0.5 -0.34375 0.84375q-0.328125 0.328125 -0.8125 0.328125zm0.90625 1.171875l0 8.8125l-1.828125 0l0 -8.8125l1.828125 0zm6.8333893 -0.140625q1.046875 0 1.875 0.4375q0.828125 0.421875 1.28125 1.265625q0.46875 0.84375 0.46875 2.046875l0 5.203125l-1.8125 0l0 -4.921875q0 -1.1875 -0.59375 -1.8125q-0.59375 -0.640625 -1.609375 -0.640625q-1.03125 0 -1.625 0.640625q-0.59375 0.625 -0.59375 1.8125l0 4.921875l-1.828125 0l0 -8.8125l1.828125 0l0 1.0q0.4375 -0.546875 1.125 -0.84375q0.703125 -0.296875 1.484375 -0.296875zm9.493393 0q1.03125 0 1.8125 0.40625q0.796875 0.40625 1.25 1.015625l0 -1.28125l1.828125 0l0 8.953125q0 1.21875 -0.515625 2.171875q-0.5 0.953125 -1.46875 1.5q-0.96875 0.546875 -2.3125 0.546875q-1.796875 0 -2.984375 -0.84375q-1.171875 -0.84375 -1.328125 -2.28125l1.796875 0q0.21875 0.6875 0.890625 1.109375q0.6875 0.421875 1.625 0.421875q1.109375 0 1.78125 -0.671875q0.6875 -0.671875 0.6875 -1.953125l0 -1.46875q-0.46875 0.625 -1.265625 1.046875q-0.78125 0.421875 -1.796875 0.421875q-1.15625 0 -2.109375 -0.578125q-0.9375 -0.59375 -1.5 -1.640625q-0.546875 -1.046875 -0.546875 -2.375q0 -1.328125 0.546875 -2.34375q0.5625 -1.03125 1.5 -1.59375q0.953125 -0.5625 2.109375 -0.5625zm3.0625 4.53125q0 -0.90625 -0.375 -1.578125q-0.375 -0.671875 -0.984375 -1.015625q-0.609375 -0.359375 -1.3125 -0.359375q-0.703125 0 -1.3125 0.34375q-0.609375 0.34375 -0.984375 1.015625q-0.375 0.65625 -0.375 1.5625q0 0.921875 0.375 1.609375q0.375 0.6875 0.984375 1.046875q0.625 0.359375 1.3125 0.359375q0.703125 0 1.3125 -0.34375q0.609375 -0.359375 0.984375 -1.03125q0.375 -0.6875 0.375 -1.609375z" fill-rule="nonzero"/><path fill="#737373" d="m358.56693 11.76378l242.86612 0l0 516.4724l-242.86612 0z" fill-rule="evenodd"/><path stroke="#424242" stroke-width="1.0" stroke-linejoin="round" stroke-linecap="butt" d="m358.56693 11.76378l242.86612 0l0 516.4724l-242.86612 0z" fill-rule="evenodd"/></g></svg>